<?xml version="1.0" encoding="UTF-8" standalone="no"?>
<svg
   xmlns:dc="http://purl.org/dc/elements/1.1/"
   xmlns:cc="http://creativecommons.org/ns#"
   xmlns:rdf="http://www.w3.org/1999/02/22-rdf-syntax-ns#"
   xmlns:svg="http://www.w3.org/2000/svg"
   xmlns="http://www.w3.org/2000/svg"
   xmlns:sodipodi="http://sodipodi.sourceforge.net/DTD/sodipodi-0.dtd"
   xmlns:inkscape="http://www.inkscape.org/namespaces/inkscape"
   viewBox="0 0 114 48"
   id="svg2"
   height="48"
   width="114"
   version="1.1"
   sodipodi:docname="Logo vector.svg"
   inkscape:version="0.92.5 (2060ec1f9f, 2020-04-08)">
  <sodipodi:namedview
     pagecolor="#ffffff"
     bordercolor="#666666"
     borderopacity="1"
     objecttolerance="10"
     gridtolerance="10"
     guidetolerance="10"
     inkscape:pageopacity="0"
     inkscape:pageshadow="2"
     inkscape:window-width="1366"
     inkscape:window-height="699"
     id="namedview63"
     showgrid="false"
     inkscape:zoom="2.2425739"
     inkscape:cx="228.62428"
     inkscape:cy="35.731789"
     inkscape:window-x="0"
     inkscape:window-y="0"
     inkscape:window-maximized="1"
     inkscape:current-layer="svg2" />
  <metadata
     id="metadata124">
    <rdf:RDF>
      <cc:Work
         rdf:about="">
        <dc:format>image/svg+xml</dc:format>
        <dc:type
           rdf:resource="http://purl.org/dc/dcmitype/StillImage" />
        <dc:title></dc:title>
      </cc:Work>
    </rdf:RDF>
  </metadata>
  <defs
     id="defs122">
    <clipPath
       clipPathUnits="userSpaceOnUse"
       id="clipPath69">
      <rect
         id="rect71"
         width="242.57841"
         height="107.91172"
         x="75.805756"
         y="130.20753" />
    </clipPath>
  </defs>
  <g
     id="g4"
     clip-path="url(#clipPath69)"
     transform="matrix(0.52091568,0,0,0.52949893,-45.442079,-73.137221)">
    <path
       id="path6"
       style="fill:#004693;fill-rule:evenodd"
       d="m 98.7172,217.5166 c 0.2375,-0.1949 0.1383,-0.1367 0.5178,-0.3204 0.9852,-0.4767 6.7011,-1.5248 7.7957,-1.7269 19.339,-3.571 48.7687,-3.1151 68.8517,-3.1265 3.7447,-0.002 7.7422,0.4483 12.5066,0.4549 l 7.6301,0.471 c 2.3075,0.4163 3.2004,-0.0757 7.2635,0.6058 14.027,0.9193 27.8622,2.377 41.8389,3.2949 3.0867,0.347 6.8376,0.3429 9.9385,0.7086 3.7859,0.4464 21.0789,0.5982 25.8026,-0.0809 1.6785,-0.2414 3.4368,-0.0768 5.2009,-0.1225 1.7777,-0.0462 1.3986,-0.4721 4.86,-0.4639 1.1561,0.002 3.8988,-0.2479 4.8526,-0.4702 v 0.4628 c -0.1372,0 -11.1795,1.9424 -13.8859,2.0842 -1.634,0.0859 -3.5517,0.4415 -4.851,0.4724 -6.9194,0.1651 -13.88,0.2048 -21.0735,0.2212 -9.848,-0.4177 -19.9902,-1.3467 -29.8504,-2.0905 -2.3576,-0.1774 -4.9421,-0.4431 -7.2707,-0.8302 l -7.6137,-0.4875 c -1.9027,-0.3942 -3.029,-0.1167 -4.9948,-0.3286 -7.7244,-0.8318 -17.3876,-1.36 -25.2615,-1.3556 -27.7665,-0.8316 -54.4417,0.4718 -82.2574,2.6279 z m -11.4822,6.5913 v -54.329 c 0.0587,-0.2745 0.1648,-0.4924 0.3474,-0.6023 l 10.535,-1.7321 c 1.1465,-0.0874 1.7572,-0.299 2.599,-0.4103 1.9693,-0.2602 3.9218,-0.1564 5.7077,-0.5413 l 5.6905,-0.5344 c 3.9675,-0.2709 22.17,-0.9557 23.6285,-0.7348 l 17.9182,0.5981 c 4.2001,-0.0221 5.4822,0.4749 9.0336,0.456 l 8.5492,0.7088 c 1.1017,0.0121 2.1072,-0.1022 3.117,0.1236 1.1944,0.2668 1.1936,0.3488 2.6761,0.3327 2.5672,-0.0282 8.2761,0.6886 11.4034,0.9235 -1.2588,2.77 -2.7069,2.9067 -3.5893,3.4144 -1.7012,0.9787 -2.5465,0.6506 -5.7576,1.246 -3.2422,0.6009 0.3478,4.324 7.8535,0.3806 2.0815,-1.0935 3.8589,-2.5544 4.6003,-4.8098 0.8423,0.3417 1.3614,0.2316 2.4978,0.2316 -0.3455,1.2312 -1.053,1.8122 -1.582,2.9278 -2.5093,5.293 -5.3723,2.9981 -8.6339,4.9899 -0.0807,1.1615 -0.1299,1.5473 1.0514,1.6604 0.9893,0.0941 1.9603,-0.138 2.8414,-0.2722 2.4229,-0.3688 2.8663,-0.4913 4.254,-1.7767 1.4316,-1.3256 4.6744,-4.5095 4.872,-7.0664 1.4735,0 2.4093,-0.0448 3.5902,0.2099 1.3141,0.2833 1.722,0.178 3.2193,0.2526 l 6.2487,0.5312 c 0.4522,0.5776 0.7811,1.438 1.0547,2.1351 1.0861,2.7706 -0.3827,1.3026 5.8494,4.0951 0.8854,0.3969 1.2957,0.7753 2.0445,1.1774 0.6468,0.3472 1.7644,0.5068 2.5552,0.7225 1.5607,0.4259 3.6075,1.5853 5.1351,1.0347 0.3297,-2.1722 -1.1908,-1.3887 -2.3076,-2.4836 -1.0973,-1.0762 -0.8127,-1.6211 -2.8666,-2.0503 -4.3266,-0.9032 -4.6396,-0.3012 -5.9092,-4.0043 2.1588,0 3.754,0.2315 6.1145,0.2315 l 0.3527,0.4147 c 2.137,0.0369 1.1651,-0.585 3.1266,0.634 1.392,0.8655 1.2919,0.9981 3.3616,0.9409 4.0686,-0.1123 4.1867,0.5208 7.4123,-1.0278 0.5576,0.2987 1.0057,0.2121 1.8444,0.2009 0.6979,-0.01 1.3456,-0.0342 2.0301,0.0547 4.0716,0.5276 3.6998,0.4177 7.9303,0.4021 1.6812,-0.006 2.5174,0.2239 3.9248,0.2414 14.0814,0.1733 34.4873,-0.2264 48.4816,-2.9202 0.5371,-0.1036 1.5161,-0.2222 1.8223,-0.2608 0.9149,-0.1154 1.1145,-0.0776 1.8116,-0.2731 3.2053,-0.8991 2.2808,-0.0276 2.2854,2.9814 l -0.003,49.5393 c 0.01,2.6361 0.371,1.4327 -0.459,3.0016 -0.5333,0 -1.0412,-0.0473 -1.5451,0.0752 -11.0781,2.69 -27.3466,3.3999 -38.729,3.3958 -2.1979,-0.008 -3.6812,0.2278 -6.0175,0.2324 -16.1221,0.0331 -34.1503,-0.9718 -50.2377,-2.7654 -6.3193,-0.5189 -13.8726,-0.8024 -20.0268,-1.7302 -16.0169,-1.5312 -30.3312,-2.6651 -46.6128,-3.1501 -8.5623,-0.2564 -21.6673,-0.2321 -30.2944,0.7357 -7.3449,0.6651 -13.96,1.7184 -21.094,2.5147 -0.8518,0.0952 -0.5708,0.0397 -1.1984,0.2061 -0.4645,0.1231 -0.8803,0.3079 -1.7277,0.2228 l -0.5624,-0.182 c -0.1085,-0.1146 -0.1763,-0.2977 -0.217,-0.52 z m 190.299,-36.9789 8.0585,0.0132 c 0.4062,0.5765 6.5453,17.5628 6.6708,18.7276 l -7.6358,-0.0431 -0.7608,-2.6526 -4.415,0.0356 c -0.3535,0.5232 -0.6774,1.8064 -0.8579,2.6503 l -7.7416,-0.0418 z m -74.1492,18.7356 c 0.1097,-1.0694 5.7223,-16.4245 6.5498,-18.7416 l 8.0727,0.0227 c 0.3299,0.3877 6.6205,17.6585 6.734,18.731 l -7.6774,-0.0927 -0.7838,-2.6041 -4.4366,0.0267 c -0.2572,0.4396 -0.2807,0.6903 -0.4598,1.3382 l -0.4374,1.319 z m -100.1589,-18.7402 7.415,0.029 0.021,6.1971 c 1.1318,0.2813 2.4905,0.237 3.6501,0.0437 l 0.0481,-6.2766 7.4801,0.1252 -0.0181,18.6109 -7.5076,-0.0394 -0.0175,-6.7189 -3.6389,0.1072 -0.0407,6.6664 -7.4749,-0.0221 z m 123.9274,0.009 7.0992,0.0221 0.0363,8.7111 c 1.0479,-0.5591 3.9779,-7.4063 5.2441,-8.7554 l 6.6621,0.0886 -0.0128,18.6689 -7.1372,-0.0363 -6e-4,-8.3122 c -0.8384,0.5834 -4.2266,6.7069 -5.0847,8.3575 l -6.8546,-0.1189 z m -88.7703,11.6394 -4.7799,0.0126 0.0156,1.5675 5.3814,0.0495 c 0.3179,1.1716 0.2096,4.1427 0.1167,5.4688 l -13.0733,-0.0156 0.0922,-18.7362 13.0035,0.032 -0.0714,5.3234 c -0.5694,0.5539 -0.8329,0.3152 -2.5328,0.321 -0.9764,0.003 -1.9343,-0.01 -2.9155,-0.0397 l 0.0911,1.07 c 1.1656,0.4254 3.3542,-0.1047 4.8641,0.301 0.2766,0.9087 0.1539,1.5216 0.1651,2.4762 0.008,0.6452 0.2217,1.7821 -0.3568,2.1695 z m 63.3209,6.3944 c -2.7906,2.4476 -15.5131,2.2086 -15.4155,-8.796 0.038,-4.2687 2.3023,-6.9729 4.9825,-8.4426 3.1274,-1.7146 7.6722,-1.7933 10.457,0.1561 l 0.007,6.3836 c -1.4341,-0.7805 -2.2436,-2.1097 -4.9953,-1.7423 -4.2171,0.5629 -4.3584,6.9721 -0.2414,7.5383 3.222,0.4429 4.0336,-1.0577 5.2312,-1.4762 l -0.0259,6.3791 z m 48.773,-18.0505 7.4603,0.1096 0.007,6.0629 c 0.9557,-0.6304 3.3133,-5.0087 4.0358,-6.1733 l 8.0629,0.0566 c -0.1433,0.7764 -2.2663,3.4633 -3.0096,4.5259 -0.6602,0.944 -2.6659,3.4147 -3.029,4.4421 1.09,2.117 5.8027,8.1588 6.3125,9.729 l -8.6044,-0.0106 c -0.3915,-0.8324 -3.225,-6.1826 -3.76,-6.4975 l -0.0265,6.4967 -7.506,-0.0307 0.0566,-18.7107 z m -81.5422,18.711 c 0.2834,-1.354 2.1126,-3.8297 2.2534,-4.8887 0.1126,-0.8491 -1.9008,-3.719 -2.4396,-4.6203 -0.8811,-1.4737 -4.9379,-8.0907 -5.1804,-9.2025 l 8.611,0.0336 c 0.7925,1.0713 1.8488,4.7282 2.8056,5.2974 l 2.0549,-5.3231 7.6359,0.0164 c -0.4306,2.4631 -6.7717,15.2192 -7.8767,18.7269 z m -26.1337,-3.2064 c -0.0117,-3.085 0.001,-6.1727 0.001,-9.2583 8e-4,-7.5366 -0.538,-6.2523 2.7597,-6.2457 l 4.8095,0.1044 0.0166,5.7651 c 0.8718,-0.2919 0.2237,0.2466 0.8636,-0.6588 l 3.1318,-5.2012 8.1085,-0.0279 c -0.322,1.4071 -4.9869,6.9598 -6.0355,8.81 0.1574,0.8248 2.5355,4.1602 3.0932,4.9844 0.5979,0.8839 2.9073,4.0402 3.1441,4.9382 l -8.6252,0.0285 c -0.4413,-1.2116 -1.0572,-2.0872 -1.7398,-3.2928 -0.6861,-1.2127 -1.2209,-2.6181 -1.9472,-2.9702 l -0.0211,6.2356 -7.5516,-0.0533 -0.008,-3.158 z m 99.6617,-20.4639 c -0.5771,5.4342 -10.1148,5.9098 -11.1616,0.0148 5.187,-0.0167 3.4052,-0.2091 4.3549,1.1922 0.2476,0.3652 0.5833,0.6359 1.1233,0.6695 1.3671,0.0855 1.3972,-0.9265 1.8266,-1.8404 z m 49.5535,-4.7993 1.9087,-0.004 c 0.614,0.9489 0.6197,1.8286 0.9475,2.76 l 0.4412,0.8409 c 0.5238,-0.6796 0.9254,-2.5856 1.3015,-3.6222 l 2.0777,0.1586 0.2649,6.5872 c -1.4363,0.0776 -1.751,0.9059 -1.5968,-4.3461 -0.9399,1.4355 -0.8983,2.9778 -1.6228,4.2805 l -1.1189,-0.0178 c -0.5024,-0.944 -0.5273,-1.8803 -0.793,-2.5552 l -0.2597,-0.4995 c -0.0151,-0.094 -0.0645,-0.114 -0.1047,-0.1654 -0.7411,1.2185 -0.0536,-0.3406 -0.2789,0.7884 -0.0385,0.1928 -0.0642,0.7138 -0.0746,0.9254 -0.0295,0.6055 -0.0492,1.1227 -0.1717,1.6001 l -1.4177,0.0147 0.4973,-6.7452 z m -6.1651,1.1919 c -0.1509,-1.2753 -0.1712,-1.2064 1.0896,-1.2455 0.7379,-0.0227 1.5872,0.0307 2.3707,0.0148 0.9205,-0.0186 1.868,-0.2649 1.6996,0.7605 -0.1367,0.8308 0.5992,0.4822 -1.8179,0.6465 l -0.1296,5.3953 -1.5563,-0.1271 -0.052,-5.217 z"
       inkscape:connector-curvature="0" />
    <path
       id="path8"
       style="fill:#fdfeff;fill-rule:evenodd"
       d="m 203.7266,147.9982 c -0.0851,0.0503 0.1828,0.544 -0.6764,0.1801 -0.626,-0.2649 -0.2266,-0.1394 -0.4171,-0.7154 1.032,-0.0793 0.69,-0.3863 1.0935,0.5353 z m 5.4737,5.2681 c 0.5096,0.2362 0.3445,0.1165 0.5386,0.6728 0.5702,0.8026 0.3275,0.9779 0.4179,2.1739 l 7.1665,-0.9331 0.4544,1.0509 1.7197,0.1976 0.6873,5.5323 c 0.298,0.8674 0.3075,0.4065 0.7083,1.3092 2.0774,-0.2168 2.9861,1.0817 6.0686,0.895 0.0604,-0.004 4.5071,-1.0602 4.0096,2.6055 -1.491,1.0946 -2.7584,0.8067 -4.4251,0.2217 -1.4215,-0.4986 -3.0446,-0.0979 -4.6052,-0.7239 l -0.836,-0.2009 c -0.3199,0.36 -0.3748,-0.4226 -0.2441,1.0019 0.1271,1.3874 0.7337,1.6011 1.4852,2.0454 1.6225,0.9587 1.5169,0.8324 3.5216,0.7102 1.6055,-0.0987 3.3108,-0.0153 4.842,-0.1189 0.8633,-0.0582 3.0035,-0.6731 3.913,-0.1824 -0.5869,0.4683 -7.7014,0.6097 -8.5705,0.8136 l -0.737,0.2931 c -0.0331,-0.0536 -0.1238,0.0626 -0.175,0.1085 1.9249,0.6673 3.5438,1.1949 6.0656,1.2239 2.4708,0.0287 1.6247,-0.1701 2.3081,0.4852 -6.4283,0.0757 -5.6501,0.4421 -8.7277,-1.3731 -1.4057,-0.8286 -0.7564,-0.3259 -2.1801,-0.397 -0.9391,-0.047 -2.6996,-1.8709 -3.655,-2.5645 -2.6159,-1.8986 -1.1837,-1.0981 -1.7903,-3.1118 -0.3142,-1.044 -0.3032,-10e-4 -0.4558,-0.7534 -0.018,-0.0891 -0.0874,-0.0943 -0.1246,-0.1468 -0.4721,-0.0402 -0.8633,-0.196 -1.3409,-0.3699 -0.462,-0.1678 -0.2378,-0.0555 -0.649,-0.2657 -0.4647,-0.2376 -0.4147,-0.2597 -0.5197,-0.3425 -0.8351,-0.0203 -0.486,-0.2934 -0.6503,0.8206 -0.734,4.9803 0.0309,4.0952 1.6864,8.5038 1.634,4.3519 6.6957,2.0036 7.8357,4.4598 -0.7862,-0.2681 -0.9098,-0.5475 -1.6506,-0.7837 -0.9177,-0.2922 -1.3251,-0.1545 -1.6873,0.1121 1.2879,0.8245 5.1014,1.3619 5.8658,2.5746 -0.9033,-0.1389 -2.433,-0.8152 -3.6001,-1.1301 -1.4374,-0.3882 -2.1326,-0.4177 -3.2353,-1.1381 -0.9353,-0.6112 -1.9661,-1.047 -2.9503,-1.4715 -4.2515,-1.8347 -2.8898,-0.6039 -4.5191,-4.2753 -0.4432,-0.9978 -1.0695,-1.9844 -1.4705,-2.9205 -0.4699,-1.0973 -0.0347,-2.3335 0.2203,-3.6213 0.4287,-2.1646 0.894,-2.8046 0.1848,-3.8141 -0.3272,-0.1129 -0.1402,0.106 -0.6722,-0.3787 -0.4191,-0.3816 -0.2233,-0.2334 -0.3496,-0.4926 -0.6919,-0.3217 -1.4617,-0.3554 -2.3923,-0.2911 -1.0312,0.2425 -2.2944,0.07 -2.9213,-0.6233 -1.5765,-0.6143 -1.8168,-0.0741 -3.5541,0.673 -1.477,0.6354 -2.2832,0.5328 -2.7542,2.152 -0.9743,3.3502 -1.2772,7.515 -1.5063,8.2152 -0.8196,2.5057 -4.3537,6.7952 -7.1539,7.4231 -0.991,0.2223 -3.2821,0.7841 -4.0385,0.2761 1.5423,-1.0801 4.9712,-0.2938 7.6547,-3.6074 l 2.6189,-4.81 1.3567,-6.0065 c 0.2026,-1.0632 0.26,-2.3863 0.4609,-3.2764 1.251,-0.7324 2.9503,-1.3073 4.5591,-1.704 -0.2862,-0.191 -0.0768,-0.0962 -0.5645,-0.2189 -0.2737,-0.0686 -0.3699,-0.0588 -0.6474,-0.0968 -2.7597,-0.3773 -4.0686,-0.5347 -7.328,0.5585 -0.4229,4.1036 -0.921,8.9251 -3.0536,11.7958 -1.8483,2.4879 -6.1629,4.6325 -10.5377,4.1861 1.4284,-1.3225 2.1214,0.1069 7.0232,-2.1618 1.5235,-0.7056 1.3335,-0.9921 2.2247,-2.1583 2.6725,-3.4983 2.1619,-5.0295 3.2578,-9.968 0.3508,-1.5803 0.1569,-2.2269 1.5408,-2.8064 2.582,-1.0818 3.4051,-0.1241 3.2673,-0.9956 -0.8215,-0.2682 -0.5405,-0.5845 -1.7438,-0.9697 -2.2294,-0.7141 -4.8275,-0.117 -6.8581,0.556 -4.2715,1.4158 -5.2898,3.3076 -6.5779,3.7308 -0.2986,0.5462 -0.2885,0.5136 -0.7483,0.9814 -1.8212,1.8534 -1.6533,2.1151 -2.6913,2.1435 0.0385,-1.1564 1.9953,-3.8633 3.1107,-4.4038 l 3.4155,-3.1569 c 0.9762,-0.7099 3.1613,-2.2799 4.5495,-2.0763 0.2731,-0.2539 -0.0856,-0.1159 0.6039,-0.3917 0.2055,-0.082 0.3324,-0.0894 0.5557,-0.1389 1.8508,-0.4117 2.1433,-0.266 3.9175,-0.2769 -0.0482,-0.9325 -1,-5.0465 2.2881,-6.4002 1.0891,-1.3043 3.3726,0.2203 4.4675,0.2971 0.9565,-0.6055 1.3821,-1.2635 1.8411,-2.5273 -0.0834,-0.5809 0.2625,-0.0495 -0.2209,-0.4013 -0.7222,0.4814 -1.12,1.105 -2.0609,0.4899 -1.1599,-1.5768 2.1744,-3.0861 3.8108,-1.2802 0.0683,1.2261 -0.1167,1.5041 -0.4311,2.4789 -0.7447,1.4145 -1.2663,1.6635 -2.2283,2.7575 0.2564,1.2335 0.6673,1.5842 2.0667,1.7507 0.6774,-0.6219 0.9407,-0.8876 1.6107,-1.2386 l 0.3393,-1.1512 -1.822,-0.187 c -0.213,-1.0506 0.2982,-1.5246 1.3365,-1.3844 0.9407,-0.849 0.9795,0.3111 1.9945,-1.0494 0.5979,-0.8013 3.292,-4.5192 4.4943,-4.2206 0.7304,1.9333 -1.1788,4.4527 -1.4481,6.0248 2.5596,-2.2755 4.0629,-4.3526 7.7564,-6.0144 2.6717,-1.2018 9.3989,-1.3923 8.8682,3.0505 -0.6241,5.2231 -10.9431,7.3677 -15.5278,8.8193 -0.4741,0.1504 -0.8923,0.2419 -1.1889,0.3707 -0.9043,0.3923 -0.8855,0.0604 -0.8699,0.9606 z m -20.7597,15.1001 c -1.2588,2.77 -2.7069,2.9067 -3.5893,3.4144 -1.7012,0.9787 -2.5465,0.6506 -5.7576,1.246 -3.2422,0.6009 0.3478,4.324 7.8535,0.3806 2.0815,-1.0935 3.8589,-2.5544 4.6003,-4.8098 0.3267,-1.503 0.935,-2.7679 1.3704,-4.2583 0.438,-1.4973 0.5553,-3.3852 0.5553,-5.2313 1.1027,-0.7386 2.1284,-0.8906 3.7031,-0.9259 -0.3437,1.2876 -1.207,0.3475 -1.2731,2.0722 -0.0736,1.9092 -0.2586,2.576 -0.6449,4.3422 -0.1381,0.631 -0.3603,0.7138 -0.5257,1.3259 -0.4092,1.5139 0.3745,1.7663 -0.6873,2.9068 -0.3455,1.2312 -1.053,1.8122 -1.582,2.9278 -2.5093,5.293 -5.3723,2.9981 -8.6339,4.9899 -0.0807,1.1615 -0.1299,1.5473 1.0514,1.6604 0.9893,0.0941 1.9603,-0.138 2.8414,-0.2722 2.4229,-0.3688 2.8663,-0.4913 4.254,-1.7767 1.4316,-1.3256 4.6744,-4.5095 4.872,-7.0664 -0.0448,-0.3155 0.0244,-1.5752 0.1247,-2.5167 l 0.8923,-3.9696 c 0.6615,-2.1126 0.2351,-1.6818 1.1115,-2.1288 0.2061,-0.1055 0.8275,-0.3157 1.1812,-0.439 0.4951,-0.1725 2.0014,-0.8622 2.3448,-0.8603 0.9475,0.005 1.0451,0.9743 3.7334,0.9595 3.316,-0.0177 1.2225,-0.0872 3.4388,1.0856 -0.1695,2.0366 -1.4765,4.7966 -0.6777,6.6788 0.3382,0.7968 0.8412,1.2643 0.9092,2.1842 0.4522,0.5776 0.7811,1.438 1.0547,2.1351 1.0861,2.7706 -0.3827,1.3026 5.8494,4.0951 0.8854,0.3969 1.2957,0.7753 2.0445,1.1774 0.6468,0.3472 1.7644,0.5068 2.5552,0.7225 1.5607,0.4259 3.6075,1.5853 5.1351,1.0347 0.3297,-2.1722 -1.1908,-1.3887 -2.3076,-2.4836 -1.0973,-1.0762 -0.8127,-1.6211 -2.8666,-2.0503 -4.3266,-0.9032 -4.6396,-0.3012 -5.9092,-4.0043 -2.5948,-3.8652 -1.2971,-4.8067 -1.1577,-6.4809 0.7487,0.2001 0.3515,0.1796 0.9874,0.4011 0.4057,0.1413 0.7223,0.2064 1.0957,0.2933 0.2209,0.9478 0.2313,1.0869 0.2313,2.3146 l 4.9578,3.7034 0.3527,0.4147 c 2.137,0.0369 1.1651,-0.585 3.1266,0.634 1.392,0.8655 1.2919,0.9981 3.3616,0.9409 4.0686,-0.1123 4.1867,0.5208 7.4123,-1.0278 0.427,-0.9697 0.5749,-1.5506 -0.6944,-1.6561 0.3969,-1.4866 0.3901,0.0555 0.2313,-1.8519 -4.8256,0 -4.4404,0.4749 -7.406,0.4637 -1.1763,-0.004 -5.7012,0.4335 -6.2498,-1.6209 4.0973,0 6.1312,1.3459 7.7378,1.0413 1.4196,-0.2687 2.4289,-0.7058 2.4768,-2.1976 0.0464,-1.4437 -0.8552,-2.3617 -1.7625,-2.8997 -1.0268,-0.6091 -3.9688,-0.4289 -5.4792,-0.4325 -0.8671,-0.001 -0.8972,-0.3737 -1.544,-0.6421 -1.8573,-0.7712 -2.1654,0.5563 -2.5284,-2.1023 -0.2083,-1.5243 -0.2893,-2.6514 -0.2893,-4.3398 -2.3704,-0.5522 -2.0388,-0.6615 -2.5459,-1.6202 -1.0951,0 -0.7914,0.0377 -1.591,0.2608 -1.5213,0.4237 -3.4724,0.4702 -5.1214,0.4335 -0.1744,-0.7487 -0.3931,-1.0153 -0.4628,-1.8515 0.9349,-0.2179 1.5,-0.4768 2.3092,-0.6999 0.5167,-0.1424 0.796,-0.1295 1.3575,-0.2624 3.9568,-0.9366 11.5741,-3.7583 13.1449,-7.6861 0.2955,-0.7392 0.4462,-1.6384 0.2994,-2.6701 -0.0719,-0.5052 -0.2196,-0.8332 -0.4265,-1.1998 -0.3297,-0.5845 -0.2406,-0.4795 -0.7337,-0.8868 -0.6345,-0.5227 -1.3795,-0.7288 -2.2874,-0.953 l -2.5891,-0.5992 c -1.0319,-0.0933 -3.62,0.6834 -4.9281,1.4297 -0.4092,0.2337 -0.6637,0.4005 -1.0248,0.5951 -0.5022,0.2707 -0.555,0.2551 -1.0121,0.6083 -0.6448,0.4983 -1.0962,1.1369 -2.0262,1.2143 0,-3.0292 0.5085,-5.3619 -4.1121,-1.1031 -0.6894,0.6354 -0.968,0.9588 -1.489,1.7513 -1.0952,1.6659 -0.8904,1.4349 -2.0369,1.4349 0.1063,-1.2788 0.8422,-2.5552 -1.7051,-3.4163 -1.1421,-0.3858 -0.515,-0.228 -1.6194,0.0702 -0.8699,0.2351 -0.982,-0.0328 -2.0771,1.2015 -0.7925,0.8934 -0.5664,1.4133 0.0782,2.3759 -0.5522,0 -1.0747,0.01 -1.6255,-0.0295 -1.424,-0.102 -2.2458,0.1839 -3.4174,1.4674 -1.5823,1.7332 -1.6695,2.9188 -1.6695,5.2745 -1.3139,0.0292 -4.202,0.6331 -5.5615,1.1503 l -2.2805,1.1917 c -0.3655,0.2427 -0.6394,0.3912 -0.9645,0.6552 l -6.7979,7.09 c -0.3912,0.5997 -0.4167,0.4781 -0.5974,1.2539 0.007,0.0506 0.7371,2.4617 2.6887,0.6058 l 3.264,-3.217 c 0.5041,-0.3502 0.3068,-0.1408 0.81,-0.5785 1.2827,-1.1156 0.6318,-0.4623 1.8467,-1.1624 2.8368,-1.6353 4.7069,-2.1285 8.2867,-2.1285 -1.6284,1.4156 -1.7572,0.2647 -2.2372,2.1602 -0.5676,2.2403 -1.2354,5.0632 -1.4746,7.3207 -0.1709,1.6115 -0.8406,1.9748 -1.552,3.0178 z"
       inkscape:connector-curvature="0" />
    <path
       id="path10"
       style="fill:#fdfeff;fill-rule:evenodd"
       d="m 227.1051,205.7591 6.8546,0.1189 c 0.8581,-1.6506 4.2463,-7.7741 5.0847,-8.3575 l 6e-4,8.3122 7.1372,0.0363 0.0128,-18.6689 -6.6621,-0.0886 c -1.2662,1.3491 -4.1962,8.1963 -5.2441,8.7554 l -0.0363,-8.7111 -7.0992,-0.0221 z"
       inkscape:connector-curvature="0" />
    <path
       id="path12"
       style="fill:#fdfeff;fill-rule:evenodd"
       d="m 103.1425,205.8469 7.4749,0.0221 0.0407,-6.6664 3.6389,-0.1072 0.0175,6.7189 7.5076,0.0394 0.0181,-18.6109 -7.4801,-0.1252 -0.0481,6.2766 c -1.1596,0.1933 -2.5183,0.2376 -3.6501,-0.0437 l -0.021,-6.1971 -7.415,-0.029 z"
       inkscape:connector-curvature="0" />
    <path
       id="path14"
       style="fill:#fdfeff;fill-rule:evenodd"
       d="m 142.801,202.6216 0.008,3.158 7.5516,0.0533 0.0211,-6.2356 c 0.7263,0.3521 1.2611,1.7575 1.9472,2.9702 0.6826,1.2056 1.2985,2.0812 1.7398,3.2928 l 8.6252,-0.0285 c -0.2368,-0.898 -2.5462,-4.0543 -3.1441,-4.9382 -0.5577,-0.8242 -2.9358,-4.1596 -3.0932,-4.9844 1.0486,-1.8502 5.7135,-7.4029 6.0355,-8.81 l -8.1085,0.0279 -3.1318,5.2012 c -0.6399,0.9054 0.008,0.3669 -0.8636,0.6588 l -0.0166,-5.7651 -4.8095,-0.1044 c -3.2977,-0.007 -2.7589,-1.2909 -2.7597,6.2457 0,3.0856 -0.0128,6.1733 -0.001,9.2583 z"
       inkscape:connector-curvature="0" />
    <path
       id="path16"
       style="fill:#fdfeff;fill-rule:evenodd"
       d="m 250.4203,205.8277 7.506,0.0307 0.0265,-6.4967 c 0.535,0.3149 3.3685,5.6651 3.76,6.4975 l 8.6044,0.0106 c -0.5098,-1.5702 -5.2225,-7.612 -6.3125,-9.729 0.3631,-1.0274 2.3688,-3.4981 3.029,-4.4421 0.7433,-1.0626 2.8663,-3.7495 3.0096,-4.5259 l -8.0629,-0.0566 c -0.7225,1.1646 -3.0801,5.5429 -4.0358,6.1733 l -0.007,-6.0629 -7.4603,-0.1096 -0.0566,18.7107 z"
       inkscape:connector-curvature="0" />
    <path
       id="path18"
       style="fill:#fdfeff;fill-rule:evenodd"
       d="m 213.7121,195.1129 c 0.2181,-0.7116 0.05,-0.3639 0.4584,-0.8226 l 0.977,4.1085 -2.1861,-0.0216 z m -10.3273,10.7517 7.5615,-8e-4 0.4374,-1.319 c 0.1791,-0.6479 0.2026,-0.8986 0.4598,-1.3382 l 4.4366,-0.0267 0.7838,2.6041 7.6774,0.0927 c -0.1135,-1.0725 -6.4041,-18.3433 -6.734,-18.731 l -8.0727,-0.0227 c -0.8275,2.3171 -6.4401,17.6722 -6.5498,18.7416 z"
       inkscape:connector-curvature="0" />
    <path
       id="path20"
       style="fill:#fdfeff;fill-rule:evenodd"
       d="m 281.3984,194.477 c 0.825,0.5727 0.3704,0.1714 0.895,1.9402 0.1834,0.6181 0.4426,1.2903 0.4314,1.9822 l -2.2671,-0.0383 z m -10.5462,11.3412 7.7416,0.0418 c 0.1805,-0.8439 0.5044,-2.1271 0.8579,-2.6503 l 4.415,-0.0356 0.7608,2.6526 7.6358,0.0431 c -0.1255,-1.1648 -6.2646,-18.1511 -6.6708,-18.7276 l -8.0585,-0.0132 z"
       inkscape:connector-curvature="0" />
    <path
       id="path22"
       style="fill:#fdfeff;fill-rule:evenodd"
       d="m 168.9347,205.828 7.8641,0.0397 c 1.105,-3.5077 7.4461,-16.2638 7.8767,-18.7269 l -7.6359,-0.0164 -2.0549,5.3231 c -0.9568,-0.5692 -2.0131,-4.2261 -2.8056,-5.2974 l -8.611,-0.0336 c 0.2425,1.1118 4.2993,7.7288 5.1804,9.2025 0.5388,0.9013 2.5522,3.7712 2.4396,4.6203 -0.1408,1.059 -1.97,3.5347 -2.2534,4.8887 z"
       inkscape:connector-curvature="0" />
    <path
       id="path24"
       style="fill:#fdfeff;fill-rule:evenodd"
       d="m 138.383,198.7731 0.058,-4.5271 -4.9068,-0.0598 -0.0352,-1.6326 5.5688,-0.0785 0.0714,-5.3234 -13.0035,-0.032 -0.0922,18.7362 13.0733,0.0156 c 0.0929,-1.3261 0.2012,-4.2972 -0.1167,-5.4688 l -5.3814,-0.0495 -0.0156,-1.5675 z"
       inkscape:connector-curvature="0" />
    <path
       id="path26"
       style="fill:#fdfeff;fill-rule:evenodd"
       d="m 201.7039,205.1675 0.0259,-6.3791 c -1.1976,0.4185 -2.0092,1.9191 -5.2312,1.4762 -4.117,-0.5662 -3.9757,-6.9754 0.2414,-7.5383 2.7517,-0.3674 3.5612,0.9618 4.9953,1.7423 l -0.007,-6.3836 c -2.7848,-1.9494 -7.3296,-1.8707 -10.457,-0.1561 -2.6802,1.4697 -4.9445,4.1739 -4.9825,8.4426 -0.0976,11.0046 12.6249,11.2436 15.4155,8.796 z"
       inkscape:connector-curvature="0" />
    <path
       id="path28"
       style="fill:#fdfeff;fill-rule:evenodd"
       d="m 207.5196,152.0608 0.1088,0.0393 11.5702,-3.6074 c 1.6884,-0.7436 3.7759,-1.7313 4.9451,-2.6936 5.2354,-4.3094 -1.4472,-9.167 -10.0743,-2.2036 -1.1045,0.8912 -6.8642,6.5087 -6.5498,8.4653 z"
       inkscape:connector-curvature="0" />
    <path
       id="path30"
       style="fill:#0d5941;fill-rule:evenodd"
       d="m 185.1572,155.8229 c 0.6145,-1.0202 3.3351,-2.1 4.93,-2.4787 l 6.7411,-0.4672 0.3521,2.5162 c -1.6605,-1.0462 -3.4194,-1.8013 -6.2091,-1.3442 -2.4156,0.3961 -3.9959,1.3193 -5.8141,1.7739 z m 13.1754,-0.9847 c -0.0853,-0.3983 -0.0412,-0.3283 -0.3111,-0.632 l -0.255,-1.102 c -0.0295,-0.2843 0.0145,-0.6205 -0.0315,-0.9398 4.5654,-3.1091 7.3934,1.945 5.286,3.954 l -0.4057,0.301 c -0.9707,0.4688 -2.2999,0.0809 -3.1594,-0.348 -1.1367,-0.5672 -1.0399,-1.0016 -1.1233,-1.2332 z m 3.9325,-12.0697 0.5003,0.1381 -0.0446,0.5839 c -0.459,1.2638 -0.8846,1.9218 -1.8411,2.5273 -1.0949,-0.0768 -3.3784,-1.6014 -4.4675,-0.2971 l -0.392,1.1189 c 0.4439,-0.0697 0.7747,-0.0858 0.8748,-0.1159 1.1487,0.1886 1.2066,0.0169 1.5896,0.9103 0.2316,-0.3444 0.321,0.1285 0.0613,-0.5544 -0.0878,-0.2307 -0.1468,-0.2195 -0.2895,-0.3493 l -1.0036,-0.7149 c 1.2895,0.07 1.7835,0.1733 2.1567,1.2108 0.2545,-1.0419 -0.0594,-0.3836 0.465,-0.5345 0.0251,0.0211 0.3255,0.3253 0.3575,0.362 l 0.2302,0.3373 0.7778,1.7592 0.5656,1.0658 c 0.784,0.0184 1.2526,0.1455 1.8305,0.5744 0.541,0.4019 0.3195,0.336 0.7312,0.6916 0.7376,0.6378 -0.6552,-0.5188 0.2663,0.2078 1.6588,1.3084 0.9483,2.8403 -0.0508,3.3289 -0.1583,-0.6376 0.3064,0.3969 -0.1203,-0.6135 l -0.4497,-1.0705 c -1.1777,-3.5684 -2.058,-1.307 -3.2389,-3.2092 l -0.1258,-0.2129 c -1.0153,0.3108 -1.0295,0.2214 -1.9612,0.0232 -0.6391,0.81 -0.3597,0.7051 -1.1809,1.3874 -0.5894,0.4896 -0.7677,0.5921 -1.7909,0.5514 l -0.2037,-0.4831 -0.8972,-0.012 0.12,1.0175 c -1.0341,0.1572 -1.6364,-0.0265 -2.8797,0.1807 -0.8658,0.1443 -1.9174,0.5262 -2.8075,0.3507 -1.3882,-0.2036 -3.5733,1.3664 -4.5495,2.0763 l -3.4155,3.1569 c -0.0142,1.7723 0.4043,0.3048 -0.6679,1.178 l 0.3543,0.0896 c 0.002,0 0.6151,0.0118 0.6425,0.0113 1.2881,-0.4232 2.3064,-2.315 6.5779,-3.7308 2.0306,-0.673 4.6287,-1.2701 6.8581,-0.556 1.2033,0.3852 0.9223,0.7015 1.7438,0.9697 1.3054,0.2807 1.4746,0.7564 3.167,1.1888 1.5629,0.3992 2.4451,-0.1476 3.9238,-0.2268 l 0.0833,1.5683 c 0.6269,0.6933 1.8901,0.8658 2.9213,0.6233 -0.102,-1.8516 -0.0815,0.0273 -0.6651,-1.3122 -0.4525,0.395 -0.9533,0.8135 -1.611,0.1719 -0.4224,-0.4117 -0.3297,0.2764 -0.275,-0.8562 0.0801,-1.6621 1.6296,-0.9316 2.2299,-3.5393 l 1.69,-0.4022 c 1.2285,1.029 1.489,1.4683 0.7449,3.2532 l 1.0563,-0.2023 -0.1172,-2.4508 c -0.1941,-0.5563 -0.029,-0.4366 -0.5386,-0.6728 -0.1197,-0.0618 -0.8652,-0.4141 -0.8762,-0.4218 -0.7509,-0.5126 -0.2837,-0.0612 -0.6957,-0.7444 l -0.1088,-0.0393 c -0.6017,-0.0348 -1.453,-0.0495 -1.904,-0.5441 -0.5025,-0.5508 -0.0971,-0.319 -0.4065,-0.7012 l -0.6725,-0.503 c 0.2457,-0.3559 0.0812,-0.1036 0.3409,-0.3876 0.8805,-0.9628 0.2818,-0.6077 1.0522,-0.8447 0.915,-0.6542 2.2034,-1.7053 1.875,-3.5104 -0.5486,-0.2939 -1.3406,-0.4598 -2.0656,-0.1851 l -0.4606,0.2045 c 1.0973,-0.1457 0.8499,-0.2712 1.8505,0.0979 0.1957,0.5043 0.3108,1.4702 -0.4481,1.4822 l -0.7083,-0.0957 c -0.1561,0.7253 -0.0402,0.6728 -0.7048,0.9738 -0.67,0.351 -0.9333,0.6167 -1.6107,1.2386 -1.3994,-0.1665 -1.8103,-0.5172 -2.0667,-1.7507 0.962,-1.094 1.4836,-1.343 2.2283,-2.7575 0.0358,-0.3914 0.0995,-2.1058 -0.004,-2.3882 -0.1304,-0.3564 0.0924,-0.3701 -0.5809,-0.6022 -0.0845,-0.0292 -0.1367,-0.041 -0.2286,-0.0533 -1.4199,-0.19 -1.1336,0.3606 -1.1984,0.406 0.696,0.2353 0.6667,-0.4476 0.4584,0.6284 z"
       inkscape:connector-curvature="0" />
    <path
       id="path32"
       style="fill:#004693;fill-rule:evenodd"
       d="m 205.1216,145.3248 0.6175,0.0599 c 0.725,-0.2747 1.517,-0.1088 2.0656,0.1851 -0.0276,-1.4123 1.9456,-3.4718 2.8603,-3.8354 -0.1916,2.1971 -3.5997,8.5645 -5.0456,9.3696 l 0.3103,-2.0238 c -0.7704,0.237 -0.1717,-0.1181 -1.0522,0.8447 -0.2597,0.284 -0.0952,0.0317 -0.3409,0.3876 l 0.6725,0.503 c 0.3094,0.3822 -0.096,0.1504 0.4065,0.7012 0.451,0.4946 1.3023,0.5093 1.904,0.5441 -0.3144,-1.9566 5.4453,-7.5741 6.5498,-8.4653 8.6271,-6.9634 15.3097,-2.1058 10.0743,2.2036 -1.1692,0.9623 -3.2567,1.95 -4.9451,2.6936 l -11.5702,3.6074 c 0.412,0.6832 -0.0552,0.2318 0.6957,0.7444 0.011,0.008 0.7565,0.36 0.8762,0.4218 -0.0156,-0.9002 -0.0344,-0.5683 0.8699,-0.9606 0.2966,-0.1288 0.7148,-0.2203 1.1889,-0.3707 4.5847,-1.4516 14.9037,-3.5962 15.5278,-8.8193 0.5307,-4.4428 -6.1965,-4.2523 -8.8682,-3.0505 -3.6935,1.6618 -5.1968,3.7389 -7.7564,6.0144 0.2693,-1.5721 2.1785,-4.0915 1.4481,-6.0248 -1.2023,-0.2986 -3.8964,3.4193 -4.4943,4.2206 -1.015,1.3605 -1.0538,0.2004 -1.9945,1.0494 z"
       inkscape:connector-curvature="0" />
    <path
       id="path34"
       style="fill:#004693;fill-rule:evenodd"
       d="m 203.7648,158.6537 -0.0833,-1.5683 c -1.4787,0.0792 -2.3609,0.626 -3.9238,0.2268 -1.6924,-0.4324 -1.8616,-0.9081 -3.167,-1.1888 0.1378,0.8715 -0.6853,-0.0862 -3.2673,0.9956 -1.3839,0.5795 -1.19,1.2261 -1.5408,2.8064 -1.0959,4.9385 -0.5853,6.4697 -3.2578,9.968 -0.8912,1.1662 -0.7012,1.4527 -2.2247,2.1583 -4.9018,2.2687 -5.5948,0.8393 -7.0232,2.1618 4.3748,0.4464 8.6894,-1.6982 10.5377,-4.1861 2.1326,-2.8707 2.6307,-7.6922 3.0536,-11.7958 3.2594,-1.0932 4.5683,-0.9358 7.328,-0.5585 0.2775,0.038 0.3737,0.0282 0.6474,0.0968 0.4877,0.1227 0.2783,0.0279 0.5645,0.2189 -1.6088,0.3967 -3.3081,0.9716 -4.5591,1.704 -0.2009,0.8901 -0.2583,2.2132 -0.4609,3.2764 l -1.3567,6.0065 -2.6189,4.81 c -2.6835,3.3136 -6.1124,2.5273 -7.6547,3.6074 0.7564,0.508 3.0475,-0.0538 4.0385,-0.2761 2.8002,-0.6279 6.3343,-4.9174 7.1539,-7.4231 0.2291,-0.7002 0.532,-4.865 1.5063,-8.2152 0.471,-1.6192 1.2772,-1.5166 2.7542,-2.152 1.7373,-0.7471 1.9776,-1.2873 3.5541,-0.673 z"
       inkscape:connector-curvature="0" />
    <path
       id="path36"
       style="fill:#0d5941;fill-rule:evenodd"
       d="m 226.5688,165.8202 c 0.6875,-1.5378 3.1249,-1.397 3.5645,0.565 -1.3614,0.3054 -2.6941,0.4254 -3.5645,-0.565 z m -3.0585,-0.1485 c -0.006,-0.015 -0.5479,-0.1298 0.0716,-0.7028 0.1804,-0.1671 0.4347,-0.1917 0.6785,-0.2231 0.6304,-0.082 1.125,0.0571 1.5979,0.234 l -0.4442,0.8103 c -0.8967,0.1244 -1.1783,0.1968 -1.9038,-0.1184 z m -2.5421,-1.304 c 0.3704,-0.7102 1.2389,-0.3171 1.848,-0.1233 -0.3179,1.3798 -1.6203,1.4465 -2.336,0.4186 0.316,-0.6211 0.003,-0.2398 0.488,-0.2953 z m -6.5875,-2.0194 c 0.4221,-1.0776 1.3707,-1.0836 2.07,-0.5065 1.31,1.0806 -0.5271,1.5637 -2.07,0.5065 z m -5.3023,-2.7802 c 0.1263,0.2592 -0.0695,0.111 0.3496,0.4926 0.532,0.4847 0.345,0.2658 0.6722,0.3787 1.3065,0.1479 1.3623,0.8272 2.1209,1.5768 0.5899,-0.1999 0.3078,0.006 0.693,-0.4967 l -0.9218,-0.3278 c -0.3243,-0.8592 0.1771,-1.3147 1.2476,-1.477 l -0.1563,1.6765 0.7203,1.1712 c 0.0282,0.0571 0.0591,0.126 0.085,0.1796 0.0271,0.056 0.0667,0.1416 0.0891,0.1886 0.023,0.0479 0.0599,0.1293 0.0927,0.1925 0.105,0.0828 0.055,0.1049 0.5197,0.3425 0.4112,0.2102 0.187,0.0979 0.649,0.2657 0.4776,0.1739 0.8688,0.3297 1.3409,0.3699 0.4459,0.1534 0.8075,0.3204 1.1246,0.4554 0.9716,0.4134 0.4847,-0.0421 1.0348,0.6785 l 0.5801,0.0583 c 0.6118,0.0429 1.0593,0.1946 1.4368,0.328 0.0708,0.0252 0.4333,0.1599 0.5019,0.1947 0.7135,0.3584 0.1465,-0.1017 0.6824,0.4521 1.5606,0.626 3.1837,0.2253 4.6052,0.7239 1.6667,0.585 2.9341,0.8729 4.4251,-0.2217 0.4975,-3.6657 -3.9492,-2.6093 -4.0096,-2.6055 -3.0825,0.1867 -3.9912,-1.1118 -6.0686,-0.895 l -0.8086,-0.0123 c -0.1433,0.3171 -0.0383,0.1809 -0.2234,0.5057 -0.2291,0.403 -0.1019,0.1758 -0.3425,0.439 -0.7127,0.3918 -1.5692,-0.1935 -2.1843,-0.4814 0.2589,-0.6886 0.3401,-0.723 0.9139,-1.1126 l 1.2392,0.2819 c -0.1714,-0.8344 0.0574,-0.5044 -0.7616,-0.757 -0.2091,-0.0645 -0.9325,0.027 -1.1812,0.0484 -0.7477,-1.1911 -0.5684,-0.3874 -1.3877,-1.4238 l -1.0965,-0.3958 c -0.6574,-0.0752 -0.6465,-0.0265 -1.1435,0.0508 -0.3264,-0.4893 -0.2335,-0.6139 -0.6282,-1.1421 l -1.8455,-0.3874 c 0.3753,1.8877 -1.2611,1.0577 -1.7029,-0.0721 l -0.8105,0.0538 z"
       inkscape:connector-curvature="0" />
    <path
       id="path38"
       style="fill:#004693;fill-rule:evenodd"
       d="m 218.0073,157.342 c 1.0741,0.3385 0.6823,0.7671 0.9177,2.0676 0.1525,0.8422 0.3753,1.6276 0.392,2.3999 -1.483,-0.0314 -1.4674,0.1695 -1.5544,-1.2925 -0.0869,-1.4656 -0.3018,-2.4035 0.2447,-3.175 z m -9.2075,-0.7498 -1.1309,0.0604 c 0.5063,0.7384 1.9907,0.8423 -0.9678,1.1378 l -0.5314,0.1129 c -0.0254,-0.0484 -0.105,0.0303 -0.1487,0.0615 0.5836,1.3395 0.5631,-0.5394 0.6651,1.3122 0.9306,-0.0643 1.7004,-0.0306 2.3923,0.2911 l -0.1487,-0.7031 0.8105,-0.0538 1.7029,0.0721 1.8455,0.3874 c 0.3947,0.5282 0.3018,0.6528 0.6282,1.1421 0.497,-0.0773 0.4861,-0.126 1.1435,-0.0508 -0.4732,-0.9453 -0.5833,-1.5984 -1.6449,-1.9483 -1.2397,-0.4087 -1.4559,-0.3975 -1.9516,-1.4525 l 5.3067,0.3918 c 0.1974,4.2094 0.3494,3.492 -0.6137,3.4048 0.8193,1.0364 0.64,0.2327 1.3877,1.4238 0.2487,-0.0214 0.9721,-0.1129 1.1812,-0.0484 0.819,0.2526 0.5902,-0.0774 0.7616,0.757 0.0369,0.2864 0.1097,0.79 0.0312,1.3121 0.2406,-0.2632 0.1134,-0.036 0.3425,-0.439 0.1851,-0.3248 0.0801,-0.1886 0.2234,-0.5057 l 0.8086,0.0123 c -0.4008,-0.9027 -0.4103,-0.4418 -0.7083,-1.3092 l -0.6873,-5.5323 -1.7197,-0.1976 -0.4544,-1.0509 -7.1665,0.9331 c -0.0904,-1.196 0.1523,-1.3713 -0.4179,-2.1739 l 0.1172,2.4508 z"
       inkscape:connector-curvature="0" />
    <path
       id="path40"
       style="fill:#004693;fill-rule:evenodd"
       d="m 214.7788,173.4618 c -1.6252,-0.309 -1.5621,-0.7239 -2.0878,-2.0837 -0.3529,-0.9125 -0.6733,-1.7184 -1.2037,-2.7236 -0.7988,-1.5134 -1.1503,-1.1449 -0.7025,-3.0776 0.2395,-1.0348 0.2939,-2.3871 0.7419,-3.2843 1.7767,0.0803 1.0853,0.9379 0.9322,2.3693 -0.5281,4.9426 0.9292,4.6129 2.3199,8.7999 z m -0.7081,-10.3387 c -0.0328,-0.0632 -0.0697,-0.1446 -0.0927,-0.1925 -0.0224,-0.047 -0.062,-0.1326 -0.0891,-0.1886 -0.0259,-0.0536 -0.0568,-0.1225 -0.085,-0.1796 l -0.7203,-1.1712 -0.1695,0.1283 c -0.3852,0.503 -0.1031,0.2968 -0.693,0.4967 -0.7586,-0.7496 -0.8144,-1.4289 -2.1209,-1.5768 0.7092,1.0095 0.2439,1.6495 -0.1848,3.8141 -0.255,1.2878 -0.6902,2.524 -0.2203,3.6213 0.401,0.9361 1.0273,1.9227 1.4705,2.9205 1.6293,3.6714 0.2676,2.4406 4.5191,4.2753 0.9842,0.4245 2.015,0.8603 2.9503,1.4715 1.1027,0.7204 1.7979,0.7499 3.2353,1.1381 1.1671,0.3149 2.6968,0.9912 3.6001,1.1301 -0.7644,-1.2127 -4.5779,-1.7501 -5.8658,-2.5746 0.3622,-0.2666 0.7696,-0.4043 1.6873,-0.1121 0.7408,0.2362 0.8644,0.5156 1.6506,0.7837 -1.14,-2.4562 -6.2017,-0.1079 -7.8357,-4.4598 -1.6555,-4.4086 -2.4204,-3.5235 -1.6864,-8.5038 0.1643,-1.114 -0.1848,-0.8409 0.6503,-0.8206 z"
       inkscape:connector-curvature="0" />
    <path
       id="path42"
       style="fill:#fdfeff;fill-rule:evenodd"
       d="m 291.5189,184.1036 1.4177,-0.0147 c 0.1225,-0.4774 0.1422,-0.9946 0.1717,-1.6001 0.0104,-0.2116 0.0361,-0.7326 0.0746,-0.9254 0.2253,-1.129 -0.4622,0.4301 0.2789,-0.7884 0.0402,0.0514 0.0896,0.0714 0.1047,0.1654 l 0.2597,0.4995 c 0.2657,0.6749 0.2906,1.6112 0.793,2.5552 l 1.1189,0.0178 c 0.7245,-1.3027 0.6829,-2.845 1.6228,-4.2805 -0.1542,5.252 0.1605,4.4237 1.5968,4.3461 l -0.2649,-6.5872 -2.0777,-0.1586 c -0.3761,1.0366 -0.7777,2.9426 -1.3015,3.6222 l -0.4412,-0.8409 c -0.3278,-0.9314 -0.3335,-1.8111 -0.9475,-2.76 l -1.9087,0.004 -0.4973,6.7452 z"
       inkscape:connector-curvature="0" />
    <path
       id="path44"
       style="fill:#fdfeff;fill-rule:evenodd"
       d="m 242.4627,182.1577 -3.8568,0.0361 c -0.4294,0.9139 -0.4595,1.9259 -1.8266,1.8404 -0.54,-0.0336 -0.8757,-0.3043 -1.1233,-0.6695 -0.9497,-1.4013 0.8321,-1.2089 -4.3549,-1.1922 1.0468,5.895 10.5845,5.4194 11.1616,-0.0148 z"
       inkscape:connector-curvature="0" />
    <path
       id="path46"
       style="fill:#1c62a6;fill-rule:evenodd"
       d="m 221.9409,166.2682 c -0.5359,-0.5538 0.0311,-0.0937 -0.6824,-0.4521 -0.0686,-0.0348 -0.4311,-0.1695 -0.5019,-0.1947 -0.3775,-0.1334 -0.825,-0.2851 -1.4368,-0.328 0.0497,0.0495 0.1232,0.1028 0.1604,0.1367 0.3242,0.296 1.1993,1.1268 0.8986,2.7558 -0.585,-0.4721 -1.5197,-0.9852 -2.2458,-1.5552 l 0.0205,-1.4191 0.5862,0.0235 c -0.5501,-0.7206 -0.0632,-0.2651 -1.0348,-0.6785 -0.3171,-0.135 -0.6787,-0.302 -1.1246,-0.4554 0.0372,0.0525 0.1066,0.0577 0.1246,0.1468 0.1526,0.7523 0.1416,-0.2906 0.4558,0.7534 0.6066,2.0137 -0.8256,1.2132 1.7903,3.1118 0.9554,0.6936 2.7159,2.5175 3.655,2.5645 1.4237,0.0711 0.7744,-0.4316 2.1801,0.397 3.0776,1.8152 2.2994,1.4488 8.7277,1.3731 -0.6834,-0.6553 0.1627,-0.4565 -2.3081,-0.4852 -2.5218,-0.029 -4.1407,-0.5566 -6.0656,-1.2239 0.0512,-0.0459 0.1419,-0.1621 0.175,-0.1085 l 0.737,-0.2931 c 0.8691,-0.2039 7.9836,-0.3453 8.5705,-0.8136 -0.9095,-0.4907 -3.0497,0.1242 -3.913,0.1824 -1.5312,0.1036 -3.2365,0.0202 -4.842,0.1189 -2.0047,0.1222 -1.8991,0.2485 -3.5216,-0.7102 -0.7515,-0.4443 -1.3581,-0.658 -1.4852,-2.0454 -0.1307,-1.4245 -0.0758,-0.6419 0.2441,-1.0019 z"
       inkscape:connector-curvature="0" />
    <path
       id="path48"
       style="fill:#fdfeff;fill-rule:evenodd"
       d="m 285.8511,178.5503 1.6041,0.2275 0.052,5.217 1.5563,0.1271 0.1296,-5.3953 c 2.4171,-0.1643 1.6812,0.1843 1.8179,-0.6465 0.1684,-1.0254 -0.7791,-0.7791 -1.6996,-0.7605 -0.7835,0.0159 -1.6328,-0.0375 -2.3707,-0.0148 -1.2608,0.0391 -1.2405,-0.0298 -1.0896,1.2455 z"
       inkscape:connector-curvature="0" />
    <path
       id="path50"
       style="fill:#d7d300;fill-rule:evenodd"
       d="m 206.021,157.9648 c 0.0437,-0.0312 0.1233,-0.1099 0.1487,-0.0615 l 0.5314,-0.1129 c 2.9585,-0.2955 1.4741,-0.3994 0.9678,-1.1378 l 1.1309,-0.0604 c 0.7441,-1.7849 0.4836,-2.2242 -0.7449,-3.2532 l -1.69,0.4022 c -0.6003,2.6077 -2.1498,1.8772 -2.2299,3.5393 -0.0547,1.1326 -0.1474,0.4445 0.275,0.8562 0.6577,0.6416 1.1585,0.2231 1.611,-0.1719 z"
       inkscape:connector-curvature="0" />
    <path
       id="path52"
       style="fill:#fdfeff;fill-rule:evenodd"
       d="m 214.7788,173.4618 c -1.3907,-4.187 -2.848,-3.8573 -2.3199,-8.7999 0.1531,-1.4314 0.8445,-2.289 -0.9322,-2.3693 -0.448,0.8972 -0.5024,2.2495 -0.7419,3.2843 -0.4478,1.9327 -0.0963,1.5642 0.7025,3.0776 0.5304,1.0052 0.8508,1.8111 1.2037,2.7236 0.5257,1.3598 0.4626,1.7747 2.0878,2.0837 z"
       inkscape:connector-curvature="0" />
    <path
       id="path54"
       style="fill:#004693;fill-rule:evenodd"
       d="m 199.223,154.8459 c -0.4994,-3.6129 3.2392,-2.9787 3.6547,-1.2048 0.2696,1.1501 -0.4732,1.9626 -1.3996,2.1561 -1.1135,0.2327 -1.7269,-0.5027 -2.2551,-0.9513 z m -1.2015,-0.6397 c -0.1438,-1.8341 0.3582,-2.687 2.2185,-2.5522 l -0.8196,0.6804 c -0.272,0.2012 -0.3707,0.3086 -0.6561,0.4809 l -0.4317,2.0229 c 0.0834,0.2316 -0.0134,0.666 1.1233,1.2332 0.8595,0.4289 2.1887,0.8168 3.1594,0.348 l 0.4057,-0.301 c 2.1074,-2.009 -0.7206,-7.0631 -5.286,-3.954 0.046,0.3193 0.002,0.6555 0.0315,0.9398 z"
       inkscape:connector-curvature="0" />
    <path
       id="path56"
       style="fill:#6a8c26;fill-rule:evenodd"
       d="m 198.4846,147.634 0.1917,0.1627 c 0.67,0.2769 0.1449,-0.2305 0.3373,0.4822 0.0886,0.3294 0.0749,0.2526 0.0386,0.5965 -0.0356,0.3357 -0.2275,0.652 -0.3653,1.0604 0.9317,0.1982 0.9459,0.2876 1.9612,-0.0232 l 0.1258,0.2129 c 1.1809,1.9022 2.0612,-0.3592 3.2389,3.2092 l 0.4497,1.0705 c 0.4267,1.0104 -0.038,-0.0241 0.1203,0.6135 0.9991,-0.4886 1.7096,-2.0205 0.0508,-3.3289 -0.9215,-0.7266 0.4713,0.43 -0.2663,-0.2078 -0.4117,-0.3556 -0.1902,-0.2897 -0.7312,-0.6916 -0.5779,-0.4289 -1.0465,-0.556 -1.8305,-0.5744 l -0.5656,-1.0658 c -0.0941,0.5604 -0.9254,0.4961 -1.4385,0.5675 l 0.263,-2.1747 c 0.2389,-0.4494 -0.2573,-0.1441 0.3977,-0.152 l -0.2302,-0.3373 c -0.032,-0.0367 -0.3324,-0.3409 -0.3575,-0.362 -0.5244,0.1509 -0.2105,-0.5074 -0.465,0.5345 -0.3732,-1.0375 -0.8672,-1.1408 -2.1567,-1.2108 l 1.0036,0.7149 c 0.1427,0.1298 0.2017,0.1186 0.2895,0.3493 0.2597,0.6829 0.1703,0.21 -0.0613,0.5544 z"
       inkscape:connector-curvature="0" />
    <path
       id="path58"
       style="fill:#d7d300;fill-rule:evenodd"
       d="m 185.1572,155.8229 c 1.8182,-0.4546 3.3985,-1.3778 5.8141,-1.7739 2.7897,-0.4571 4.5486,0.298 6.2091,1.3442 l -0.3521,-2.5162 -6.7411,0.4672 c -1.5949,0.3787 -4.3155,1.4585 -4.93,2.4787 z"
       inkscape:connector-curvature="0" />
    <path
       id="path60"
       style="fill:#fdfeff;fill-rule:evenodd"
       d="m 207.8047,145.5698 c 0.3284,1.8051 -0.96,2.8562 -1.875,3.5104 l -0.3103,2.0238 c 1.4459,-0.8051 4.854,-7.1725 5.0456,-9.3696 -0.9147,0.3636 -2.8879,2.4231 -2.8603,3.8354 z"
       inkscape:connector-curvature="0" />
    <path
       id="path62"
       style="fill:#fdfeff;fill-rule:evenodd"
       d="m 214.8873,157.8601 c 1.2695,0.1082 1.3761,0.2545 1.257,1.6804 -0.8702,-0.3294 -1.1974,-0.6074 -1.257,-1.6804 z m 0.173,2.5019 1.0965,0.3958 c 0.9631,0.0872 0.8111,0.8046 0.6137,-3.4048 l -5.3067,-0.3918 c 0.4957,1.055 0.7119,1.0438 1.9516,1.4525 1.0616,0.3499 1.1717,1.003 1.6449,1.9483 z"
       inkscape:connector-curvature="0" />
    <path
       id="path64"
       style="fill:#829ac6;fill-rule:evenodd"
       d="m 200.6481,153.3489 c 0.7676,-0.0241 0.8089,0.0757 1.1788,0.7337 l -0.7157,0.5356 c -0.8032,-0.2915 -1.0358,-0.5424 -0.4631,-1.2693 z m -1.4251,1.497 c 0.5282,0.4486 1.1416,1.184 2.2551,0.9513 0.9264,-0.1935 1.6692,-1.006 1.3996,-2.1561 -0.4155,-1.7739 -4.1541,-2.4081 -3.6547,1.2048 z"
       inkscape:connector-curvature="0" />
    <path
       id="path66"
       style="fill:#004c5d;fill-rule:evenodd"
       d="m 189.047,152.9284 c 0.8901,0.1755 1.9417,-0.2064 2.8075,-0.3507 1.2433,-0.2072 1.8456,-0.0235 2.8797,-0.1807 l -0.12,-1.0175 0.8972,0.012 -0.4226,-0.3663 c -0.0968,-0.0943 -0.2141,-0.1216 -0.3748,-0.3939 -0.6129,-1.0388 0.0541,-1.3248 0.5339,-2.2581 l 0.6252,-0.9745 c 0.6905,-0.2256 0.6192,-0.1572 1.0219,-0.675 -0.1001,0.0301 -0.4309,0.0462 -0.8748,0.1159 l 0.392,-1.1189 c -3.2881,1.3537 -2.3363,5.4677 -2.2881,6.4002 -1.7742,0.0109 -2.0667,-0.1348 -3.9175,0.2769 -0.2233,0.0495 -0.3502,0.0569 -0.5557,0.1389 -0.6895,0.2758 -0.3308,0.1378 -0.6039,0.3917 z"
       inkscape:connector-curvature="0" />
    <path
       id="path68"
       style="fill:#004693;fill-rule:evenodd"
       d="m 196.4816,151.371 c -1.8187,-1.0415 -1.164,-3.3195 1.0615,-3.0221 1.1684,1.1782 0.3937,2.6763 -1.0615,3.0221 z m -0.9702,0.0205 0.2037,0.4831 c 1.0232,0.0407 1.2015,-0.0618 1.7909,-0.5514 0.8212,-0.6823 0.5418,-0.5774 1.1809,-1.3874 0.1378,-0.4084 0.3297,-0.7247 0.3653,-1.0604 0.0363,-0.3439 0.05,-0.2671 -0.0386,-0.5965 -0.1924,-0.7127 0.3327,-0.2053 -0.3373,-0.4822 l 0.0309,0.8321 c -0.6149,-0.2733 -0.6736,-0.6131 -1.1414,-0.7394 -1.184,-0.3196 -1.6927,0.6058 -1.6927,-0.4907 l -0.6252,0.9745 c -0.4798,0.9333 -1.1468,1.2193 -0.5339,2.2581 0.1607,0.2723 0.278,0.2996 0.3748,0.3939 z"
       inkscape:connector-curvature="0" />
    <path
       id="path70"
       style="fill:#004c5d;fill-rule:evenodd"
       d="m 181.4109,159.4405 c -0.0274,5e-4 -0.6403,-0.0113 -0.6425,-0.0113 l -0.3543,-0.0896 c 1.0722,-0.8732 0.6537,0.5943 0.6679,-1.178 -1.1154,0.5405 -3.0722,3.2474 -3.1107,4.4038 1.038,-0.0284 0.8701,-0.2901 2.6913,-2.1435 0.4598,-0.4678 0.4497,-0.4352 0.7483,-0.9814 z"
       inkscape:connector-curvature="0" />
    <path
       id="path72"
       style="fill:#fdfeff;fill-rule:evenodd"
       d="m 218.0073,157.342 c -0.5465,0.7715 -0.3316,1.7094 -0.2447,3.175 0.087,1.462 0.0714,1.2611 1.5544,1.2925 -0.0167,-0.7723 -0.2395,-1.5577 -0.392,-2.3999 -0.2354,-1.3005 0.1564,-1.7291 -0.9177,-2.0676 z"
       inkscape:connector-curvature="0" />
    <path
       id="path74"
       style="fill:#004693;fill-rule:evenodd"
       d="m 280.4577,198.3611 2.2671,0.0383 c 0.0112,-0.6919 -0.248,-1.3641 -0.4314,-1.9822 -0.5246,-1.7688 -0.07,-1.3675 -0.895,-1.9402 z"
       inkscape:connector-curvature="0" />
    <path
       id="path76"
       style="fill:#829ac6;fill-rule:evenodd"
       d="m 197.252,149.3771 c 0.3852,0.6632 0.2179,0.6396 0.0476,1.0552 -0.004,8e-4 0.0992,0.4344 -0.535,0.0456 -0.2526,-0.1547 -0.2029,0.2688 -0.3043,-0.4089 -0.1271,-0.8513 0.3376,-0.619 0.7917,-0.6919 z m -0.7704,1.9939 c 1.4552,-0.3458 2.2299,-1.8439 1.0615,-3.0221 -2.2255,-0.2974 -2.8802,1.9806 -1.0615,3.0221 z"
       inkscape:connector-curvature="0" />
    <path
       id="path78"
       style="fill:#004693;fill-rule:evenodd"
       d="m 212.9614,198.3772 2.1861,0.0216 -0.977,-4.1085 c -0.4084,0.4587 -0.2403,0.111 -0.4584,0.8226 z"
       inkscape:connector-curvature="0" />
    <path
       id="path80"
       style="fill:#d7d300;fill-rule:evenodd"
       d="m 226.5688,165.8202 c 0.8704,0.9904 2.2031,0.8704 3.5645,0.565 -0.4396,-1.962 -2.877,-2.1028 -3.5645,-0.565 z"
       inkscape:connector-curvature="0" />
    <path
       id="path82"
       style="fill:#fdfeff;fill-rule:evenodd"
       d="m 219.3198,165.2934 -0.5801,-0.0583 -0.5862,-0.0235 -0.0205,1.4191 c 0.7261,0.57 1.6608,1.0831 2.2458,1.5552 0.3007,-1.629 -0.5744,-2.4598 -0.8986,-2.7558 -0.0372,-0.0339 -0.1107,-0.0872 -0.1604,-0.1367 z"
       inkscape:connector-curvature="0" />
    <path
       id="path84"
       style="fill:#004c5d;fill-rule:evenodd"
       d="m 202.7208,143.4905 0.0446,-0.5839 -0.5003,-0.1381 c -1.0774,0.1785 -0.6903,0.798 -1.5257,0.1375 0.3784,-0.5937 0.3535,-0.4253 1.0673,-0.7659 0.0648,-0.0454 -0.2215,-0.596 1.1984,-0.406 0.0919,0.0123 0.1441,0.0241 0.2286,0.0533 0.6733,0.2321 0.4505,0.2458 0.5809,0.6022 0.1036,0.2824 0.0399,1.9968 0.004,2.3882 0.3144,-0.9748 0.4994,-1.2528 0.4311,-2.4789 -1.6364,-1.8059 -4.9707,-0.2966 -3.8108,1.2802 0.9409,0.6151 1.3387,-0.008 2.0609,-0.4899 0.4834,0.3518 0.1375,-0.1796 0.2209,0.4013 z"
       inkscape:connector-curvature="0" />
    <path
       id="path86"
       style="fill:#004c5d;fill-rule:evenodd"
       d="m 205.2678,148.0474 c 0.6646,-0.301 0.5487,-0.2485 0.7048,-0.9738 l 0.7083,0.0957 0.0394,-1.0347 c -1.1947,-0.0339 -1.4399,0.2835 -2.3565,0.2239 0.33,-0.7193 0.2001,-0.4937 0.9147,-0.7693 l 0.4606,-0.2045 -0.6175,-0.0599 c -1.0383,-0.1402 -1.5495,0.3338 -1.3365,1.3844 l 1.822,0.187 z"
       inkscape:connector-curvature="0" />
    <path
       id="path88"
       style="fill:#d7d300;fill-rule:evenodd"
       d="m 219.5185,164.2023 c 0.0785,-0.5221 0.006,-1.0257 -0.0312,-1.3121 l -1.2392,-0.2819 c -0.5738,0.3896 -0.655,0.424 -0.9139,1.1126 0.6151,0.2879 1.4716,0.8732 2.1843,0.4814 z"
       inkscape:connector-curvature="0" />
    <path
       id="path90"
       style="fill:#dbe6ed;fill-rule:evenodd"
       d="m 195.8731,147.3987 c 0,1.0965 0.5087,0.1711 1.6927,0.4907 0.4678,0.1263 0.5265,0.4661 1.1414,0.7394 l -0.0309,-0.8321 -0.1917,-0.1627 c -0.383,-0.8934 -0.4409,-0.7217 -1.5896,-0.9103 -0.4027,0.5178 -0.3314,0.4494 -1.0219,0.675 z"
       inkscape:connector-curvature="0" />
    <path
       id="path92"
       style="fill:#d7d300;fill-rule:evenodd"
       d="m 214.3807,162.3483 c 1.5429,1.0572 3.38,0.5741 2.07,-0.5065 -0.6993,-0.5771 -1.6479,-0.5711 -2.07,0.5065 z"
       inkscape:connector-curvature="0" />
    <path
       id="path94"
       style="fill:#d7d300;fill-rule:evenodd"
       d="m 223.5103,165.6717 c 0.7255,0.3152 1.0071,0.2428 1.9038,0.1184 l 0.4442,-0.8103 c -0.4729,-0.1769 -0.9675,-0.316 -1.5979,-0.234 -0.2438,0.0314 -0.4981,0.056 -0.6785,0.2231 -0.6195,0.573 -0.0774,0.6878 -0.0716,0.7028 z"
       inkscape:connector-curvature="0" />
    <path
       id="path96"
       style="fill:#9aac14;fill-rule:evenodd"
       d="m 206.6809,147.1693 c 0.7589,-0.012 0.6438,-0.9779 0.4481,-1.4822 -1.0006,-0.3691 -0.7532,-0.2436 -1.8505,-0.0979 -0.7146,0.2756 -0.5847,0.05 -0.9147,0.7693 0.9166,0.0596 1.1618,-0.2578 2.3565,-0.2239 z"
       inkscape:connector-curvature="0" />
    <path
       id="path98"
       style="fill:#dbe6ed;fill-rule:evenodd"
       d="m 198.0215,154.2062 c 0.2699,0.3037 0.2258,0.2337 0.3111,0.632 l 0.4317,-2.0229 c 0.2854,-0.1723 0.3841,-0.2797 0.6561,-0.4809 l 0.8196,-0.6804 c -1.8603,-0.1348 -2.3623,0.7181 -2.2185,2.5522 z"
       inkscape:connector-curvature="0" />
    <path
       id="path100"
       style="fill:#d7d300;fill-rule:evenodd"
       d="m 201.24,149.1502 -0.7778,-1.7592 c -0.655,0.008 -0.1588,-0.2974 -0.3977,0.152 l -0.263,2.1747 c 0.5131,-0.0714 1.3444,-0.007 1.4385,-0.5675 z"
       inkscape:connector-curvature="0" />
    <path
       id="path102"
       style="fill:#b9c500;fill-rule:evenodd"
       d="m 212.9141,161.5195 0.1695,-0.1283 0.1563,-1.6765 c -1.0705,0.1623 -1.5719,0.6178 -1.2476,1.477 z"
       inkscape:connector-curvature="0" />
    <path
       id="path104"
       style="fill:#b9c873;fill-rule:evenodd"
       d="m 216.1443,159.5405 c 0.1191,-1.4259 0.0125,-1.5722 -1.257,-1.6804 0.0596,1.073 0.3868,1.351 1.257,1.6804 z"
       inkscape:connector-curvature="0" />
    <path
       id="path106"
       style="fill:#b9c500;fill-rule:evenodd"
       d="m 211.4431,158.8833 -1.7029,-0.0721 c 0.4418,1.1298 2.0782,1.9598 1.7029,0.0721 z"
       inkscape:connector-curvature="0" />
    <path
       id="path108"
       style="fill:#004693;fill-rule:evenodd"
       d="m 201.1112,154.6182 0.7157,-0.5356 c -0.3699,-0.658 -0.4112,-0.7578 -1.1788,-0.7337 -0.5727,0.7269 -0.3401,0.9778 0.4631,1.2693 z"
       inkscape:connector-curvature="0" />
    <path
       id="path110"
       style="fill:#9aac14;fill-rule:evenodd"
       d="m 220.9682,164.3677 1.6093,-0.0921 c -0.4043,0.8524 -0.4754,1.0019 -1.5754,0.6607 -0.1096,-0.2575 -0.406,0.4366 -0.0339,-0.5686 -0.485,0.0555 -0.172,-0.3258 -0.488,0.2953 0.7157,1.0279 2.0181,0.9612 2.336,-0.4186 -0.6091,-0.1938 -1.4776,-0.5869 -1.848,0.1233 z"
       inkscape:connector-curvature="0" />
    <path
       id="path112"
       style="fill:#d7d300;fill-rule:evenodd"
       d="m 220.9682,164.3677 c -0.3721,1.0052 -0.0757,0.3111 0.0339,0.5686 1.1,0.3412 1.1711,0.1917 1.5754,-0.6607 z"
       inkscape:connector-curvature="0" />
    <path
       id="path114"
       style="fill:#004693;fill-rule:evenodd"
       d="m 196.4603,150.069 c 0.1014,0.6777 0.0517,0.2542 0.3043,0.4089 0.6342,0.3888 0.5314,-0.0448 0.535,-0.0456 0.1703,-0.4156 0.3376,-0.392 -0.0476,-1.0552 -0.4541,0.0729 -0.9188,-0.1594 -0.7917,0.6919 z"
       inkscape:connector-curvature="0" />
    <path
       id="path116"
       style="fill:#b9c500;fill-rule:evenodd"
       d="m 202.2651,142.7685 c 0.2083,-1.076 0.2376,-0.3931 -0.4584,-0.6284 -0.7138,0.3406 -0.6889,0.1722 -1.0673,0.7659 0.8354,0.6605 0.4483,0.041 1.5257,-0.1375 z"
       inkscape:connector-curvature="0" />
    <path
       id="path118"
       style="fill:#b9c873;fill-rule:evenodd"
       d="m 203.7266,147.9982 c -0.4035,-0.9216 -0.0615,-0.6146 -1.0935,-0.5353 0.1905,0.576 -0.2089,0.4505 0.4171,0.7154 0.8592,0.3639 0.5913,-0.1298 0.6764,-0.1801 z"
       inkscape:connector-curvature="0" />
  </g>
</svg>
